<?xml version="1.0" encoding="iso-8859-1"?>
<!-- Generator: Adobe Illustrator 24.0.3, SVG Export Plug-In . SVG Version: 6.00 Build 0)  -->
<svg version="1.1" xmlns="http://www.w3.org/2000/svg" xmlns:xlink="http://www.w3.org/1999/xlink" x="0px" y="0px"
	 viewBox="0 0 64 64" style="enable-background:new 0 0 64 64;" xml:space="preserve">
<g id="achievement-badge-14">
	<path style="fill:#231F20;" d="M41.072,16.513c-0.118-0.363-0.422-0.619-0.795-0.668l-5.233-0.766l-2.346-4.801
		c-0.334-0.668-1.433-0.668-1.767,0l-2.346,4.801l-5.243,0.766c-0.363,0.049-0.668,0.304-0.785,0.668
		c-0.118,0.353-0.02,0.736,0.245,1.001l3.799,3.731l-0.893,5.272c-0.069,0.373,0.088,0.746,0.393,0.962
		c0.167,0.128,0.373,0.187,0.569,0.187c0.157,0,0.314-0.039,0.461-0.108l4.683-2.484l4.683,2.484
		c0.334,0.167,0.736,0.147,1.041-0.079c0.295-0.216,0.452-0.589,0.393-0.962l-0.903-5.272l3.799-3.731
		C41.091,17.249,41.189,16.866,41.072,16.513z M35.289,20.204c-0.236,0.226-0.334,0.55-0.285,0.864l0.648,3.819l-3.377-1.797
		c-0.147-0.078-0.304-0.118-0.461-0.118c-0.157,0-0.314,0.039-0.461,0.118l-3.377,1.797l0.648-3.819
		c0.059-0.314-0.049-0.638-0.275-0.864l-2.759-2.71l3.799-0.55c0.314-0.049,0.589-0.245,0.736-0.54l1.689-3.456l1.689,3.456
		c0.147,0.295,0.422,0.491,0.746,0.54l3.79,0.55L35.289,20.204z M41.072,16.513c-0.118-0.363-0.422-0.619-0.795-0.668l-5.233-0.766
		l-2.346-4.801c-0.334-0.668-1.433-0.668-1.767,0l-2.346,4.801l-5.243,0.766c-0.363,0.049-0.668,0.304-0.785,0.668
		c-0.118,0.353-0.02,0.736,0.245,1.001l3.799,3.731l-0.893,5.272c-0.069,0.373,0.088,0.746,0.393,0.962
		c0.167,0.128,0.373,0.187,0.569,0.187c0.157,0,0.314-0.039,0.461-0.108l4.683-2.484l4.683,2.484
		c0.334,0.167,0.736,0.147,1.041-0.079c0.295-0.216,0.452-0.589,0.393-0.962l-0.903-5.272l3.799-3.731
		C41.091,17.249,41.189,16.866,41.072,16.513z M35.289,20.204c-0.236,0.226-0.334,0.55-0.285,0.864l0.648,3.819l-3.377-1.797
		c-0.147-0.078-0.304-0.118-0.461-0.118c-0.157,0-0.314,0.039-0.461,0.118l-3.377,1.797l0.648-3.819
		c0.059-0.314-0.049-0.638-0.275-0.864l-2.759-2.71l3.799-0.55c0.314-0.049,0.589-0.245,0.736-0.54l1.689-3.456l1.689,3.456
		c0.147,0.295,0.422,0.491,0.746,0.54l3.79,0.55L35.289,20.204z M41.072,16.513c-0.118-0.363-0.422-0.619-0.795-0.668l-5.233-0.766
		l-2.346-4.801c-0.334-0.668-1.433-0.668-1.767,0l-2.346,4.801l-5.243,0.766c-0.363,0.049-0.668,0.304-0.785,0.668
		c-0.118,0.353-0.02,0.736,0.245,1.001l3.799,3.731l-0.893,5.272c-0.069,0.373,0.088,0.746,0.393,0.962
		c0.167,0.128,0.373,0.187,0.569,0.187c0.157,0,0.314-0.039,0.461-0.108l4.683-2.484l4.683,2.484
		c0.334,0.167,0.736,0.147,1.041-0.079c0.295-0.216,0.452-0.589,0.393-0.962l-0.903-5.272l3.799-3.731
		C41.091,17.249,41.189,16.866,41.072,16.513z M35.289,20.204c-0.236,0.226-0.334,0.55-0.285,0.864l0.648,3.819l-3.377-1.797
		c-0.147-0.078-0.304-0.118-0.461-0.118c-0.157,0-0.314,0.039-0.461,0.118l-3.377,1.797l0.648-3.819
		c0.059-0.314-0.049-0.638-0.275-0.864l-2.759-2.71l3.799-0.55c0.314-0.049,0.589-0.245,0.736-0.54l1.689-3.456l1.689,3.456
		c0.147,0.295,0.422,0.491,0.746,0.54l3.79,0.55L35.289,20.204z M58.105,8.482c-0.187-0.196-0.481-0.295-0.746-0.295h-9.111v1.963
		h8.188l-0.049,2.582c-0.54,6.224-4.064,12.026-9.582,15.963c0.039-0.432,0.059-0.864,0.059-1.306V0.982
		c0-0.55-0.432-0.982-0.982-0.982H17.991c-0.54,0-0.982,0.432-0.982,0.982v26.409c0,0.412,0.02,0.815,0.059,1.217
		c-5.449-3.927-8.924-9.69-9.454-15.806l-0.059-2.651h8.188V8.188H6.553c-0.265,0-0.52,0.098-0.707,0.295
		C5.67,8.669,5.562,8.924,5.572,9.189L5.65,12.9c0.638,7.363,5.076,14.176,11.938,18.408c1.365,4.496,5.007,7.991,9.572,9.17v6.254
		l-8.708,5.056c-0.304,0.177-0.481,0.51-0.481,0.854v10.377c0,0.55,0.432,0.982,0.982,0.982h25.722c0.55,0,0.982-0.432,0.982-0.982
		V52.641h-0.01c0-0.353-0.167-0.677-0.481-0.854l-8.836-5.056v-6.156c4.712-1.07,8.512-4.604,9.935-9.179
		c6.941-4.231,11.437-11.084,12.075-18.555l0.088-3.652C58.429,8.924,58.291,8.669,58.105,8.482z M43.693,62.037H19.935v-8.414
		h23.758V62.037z M40.983,51.659H22.595l6.038-3.515c0.304-0.177,0.491-0.491,0.491-0.844v-6.45
		c0.471,0.049,0.942,0.079,1.424,0.079h2.778c0.353,0,0.697-0.029,1.041-0.059v6.43c0,0.353,0.187,0.677,0.491,0.854L40.983,51.659z
		 M44.9,27.391c0,0.942-0.128,1.856-0.344,2.739c0,0.01-0.01,0.01-0.01,0.01l0.01,0.02c-1.247,5.046-5.802,8.806-11.231,8.806
		h-2.778c-5.37,0-9.896-3.691-11.192-8.659l0.098-0.167c-0.059-0.029-0.108-0.059-0.167-0.098c-0.196-0.854-0.314-1.738-0.314-2.651
		V6.322H44.9V27.391z M44.9,4.359H18.973V1.963H44.9V4.359z M26.601,21.245l-0.893,5.272c-0.069,0.373,0.088,0.746,0.393,0.962
		c0.167,0.128,0.373,0.187,0.569,0.187c0.157,0,0.314-0.039,0.461-0.108l4.683-2.484l4.683,2.484
		c0.334,0.167,0.736,0.147,1.041-0.079c0.295-0.216,0.452-0.589,0.393-0.962l-0.903-5.272l3.799-3.731
		c0.265-0.265,0.363-0.648,0.245-1.001c-0.118-0.363-0.422-0.619-0.795-0.668l-5.233-0.766l-2.346-4.801
		c-0.334-0.668-1.433-0.668-1.767,0l-2.346,4.801l-5.243,0.766c-0.363,0.049-0.668,0.304-0.785,0.668
		c-0.118,0.353-0.02,0.736,0.245,1.001L26.601,21.245z M29.389,16.945c0.314-0.049,0.589-0.245,0.736-0.54l1.689-3.456l1.689,3.456
		c0.147,0.295,0.422,0.491,0.746,0.54l3.79,0.55l-2.749,2.71c-0.236,0.226-0.334,0.55-0.285,0.864l0.648,3.819l-3.377-1.797
		c-0.147-0.078-0.304-0.118-0.461-0.118c-0.157,0-0.314,0.039-0.461,0.118l-3.377,1.797l0.648-3.819
		c0.059-0.314-0.049-0.638-0.275-0.864l-2.759-2.71L29.389,16.945z M41.072,16.513c-0.118-0.363-0.422-0.619-0.795-0.668
		l-5.233-0.766l-2.346-4.801c-0.334-0.668-1.433-0.668-1.767,0l-2.346,4.801l-5.243,0.766c-0.363,0.049-0.668,0.304-0.785,0.668
		c-0.118,0.353-0.02,0.736,0.245,1.001l3.799,3.731l-0.893,5.272c-0.069,0.373,0.088,0.746,0.393,0.962
		c0.167,0.128,0.373,0.187,0.569,0.187c0.157,0,0.314-0.039,0.461-0.108l4.683-2.484l4.683,2.484
		c0.334,0.167,0.736,0.147,1.041-0.079c0.295-0.216,0.452-0.589,0.393-0.962l-0.903-5.272l3.799-3.731
		C41.091,17.249,41.189,16.866,41.072,16.513z M35.289,20.204c-0.236,0.226-0.334,0.55-0.285,0.864l0.648,3.819l-3.377-1.797
		c-0.147-0.078-0.304-0.118-0.461-0.118c-0.157,0-0.314,0.039-0.461,0.118l-3.377,1.797l0.648-3.819
		c0.059-0.314-0.049-0.638-0.275-0.864l-2.759-2.71l3.799-0.55c0.314-0.049,0.589-0.245,0.736-0.54l1.689-3.456l1.689,3.456
		c0.147,0.295,0.422,0.491,0.746,0.54l3.79,0.55L35.289,20.204z"/>
	<path style="fill:#EF6825;" d="M43.693,53.623v8.414H19.935v-8.414H43.693z M35.289,20.204l2.749-2.71l-3.79-0.55
		c-0.324-0.049-0.599-0.245-0.746-0.54l-1.689-3.456l-1.689,3.456c-0.147,0.295-0.422,0.491-0.736,0.54l-3.799,0.55l2.759,2.71
		c0.226,0.226,0.334,0.55,0.275,0.864l-0.648,3.819l3.377-1.797c0.147-0.078,0.304-0.118,0.461-0.118
		c0.157,0,0.314,0.039,0.461,0.118l3.377,1.797l-0.648-3.819C34.955,20.754,35.054,20.43,35.289,20.204z"/>
</g>
<g id="Layer_1">
</g>
</svg>
