<svg xml:space="preserve" width="2048" height="2048" style="shape-rendering:geometricPrecision;text-rendering:geometricPrecision;image-rendering:optimizeQuality;fill-rule:evenodd;clip-rule:evenodd"><defs><clipPath id="id0"><path d="M1024 0c565.539 0 1024 458.461 1024 1024s-458.461 1024-1024 1024S0 1589.539 0 1024 458.461 0 1024 0z"/></clipPath><style></style></defs><g id="Layer_x0020_1"><path d="M1024 0c565.539 0 1024 458.461 1024 1024s-458.461 1024-1024 1024S0 1589.539 0 1024 458.461 0 1024 0z" style="fill:#aed581"/><g style="clip-path:url(#id0)"><g id="_478207000"><path id="_3968147921" class="fil1" d="M987.966 973.613 2123.85 2109.5l220.74 228.58L1208.71 1202.2z"/><path id="_396808720" class="fil1" d="M1055.25 684.635 2191.14 1820.52l3.44 8.38 3.16 8.46 2.86 8.54 2.56 8.62 2.25 8.68 1.94 8.75 1.61 8.81 1.28 8.86.95 8.92.6 8.97.25 9.02-.1 9.06-.47 9.09-.85 9.13-1.22 9.17-1.6 9.18-2 9.21-2.4 9.23-2.81 9.24-3.22 9.25-3.65 9.26-4.07 9.26-4.5 9.26-4.95 9.25-5.4 9.25-5.85 9.23-6.32 9.21-6.79 9.2-7.26 9.17-7.75 9.14-8.24 9.1-8.74 9.08L987.966 973.613l8.74-9.071 8.244-9.106 7.75-9.141 7.26-9.169 6.79-9.193 6.32-9.215 5.85-9.232 5.4-9.246 4.95-9.253 4.5-9.259 4.07-9.261 3.65-9.259 3.22-9.251 2.81-9.241 2.4-9.228 2-9.208 1.6-9.187 1.22-9.16.85-9.13.47-9.097.1-9.058-.25-9.017-.6-8.97-.95-8.921-1.28-8.867-1.62-8.809-1.93-8.749-2.25-8.682-2.56-8.614-2.87-8.539-3.15-8.464z"/><path id="_396803176" class="fil1" d="m1374.51 1304.2 1135.88 1135.88-6.23 6.23-1135.88-1135.88z"/><path id="_396804064" class="fil1" d="M1562.02 1570.35 2697.9 2706.23l-.07.08-.08.07-.07.08-.08.07-.07.08-.08.07-.08.07-.07.08-1135.89-1135.88.08-.08.08-.07.07-.08.08-.07.08-.08.07-.07.08-.07z"/><path id="_396814216" class="fil1" d="M971.188 989.613 2107.07 2125.5l-9.4 8.22-9.41 7.73-9.43 7.25-9.44 6.77-9.44 6.3-9.46 5.83-9.45 5.38-9.45 4.92-9.44 4.48-9.43 4.05-9.42 3.62-9.39 3.19-9.38 2.78-9.35 2.38-9.32 1.97-9.29 1.58-9.25 1.19-9.21.81-9.17.44-9.12.07-9.07-.28-9.01-.64-8.95-.98-8.89-1.32-8.82-1.65-8.76-1.97-8.68-2.29-8.6-2.59-8.52-2.9-8.44-3.19-8.34-3.49-8.26-3.76L679.603 1043.52l8.254 3.76 8.347 3.48 8.435 3.2 8.521 2.9 8.602 2.59 8.68 2.29 8.753 1.97 8.823 1.65 8.89 1.32 8.952.98 9.012.63 9.068.29 9.119-.07 9.166-.44 9.211-.82 9.251-1.19 9.288-1.58 9.322-1.97 9.351-2.37 9.376-2.78 9.398-3.19 9.417-3.62 9.43-4.05 9.442-4.48 9.449-4.93 9.452-5.37 9.452-5.83 9.448-6.3 9.44-6.77 9.428-7.25 9.414-7.731z"/><path id="_396826888" class="fil1" d="m1302.1 1376.61 1135.88 1135.88-6.23 6.23-1135.88-1135.89z"/><path id="_396813256" class="fil1" d="M1561.41 1570.95 2697.3 2706.83l-1.75 1.6-1.8 1.49-1.86 1.39-1.91 1.28-1.96 1.18-2.01 1.08-2.04.97-2.09.87-2.11.77-2.14.65-2.17.56-2.19.45-2.2.35-2.21.24-2.22.14-2.22.03-2.23-.07-2.22-.18-2.2-.27-2.2-.39-2.18-.49-2.16-.59-2.13-.7-2.1-.8-2.07-.9-2.04-1.01-1.99-1.11-1.94-1.22-1.89-1.32-1.84-1.43-1.79-1.53-1.72-1.64-1135.88-1135.88 1.72 1.64 1.78 1.53 1.84 1.42 1.9 1.32 1.94 1.22 1.99 1.12 2.04 1.01 2.07.9 2.1.8 2.13.7 2.16.59 2.18.49 2.19.38 2.21.28 2.22.18 2.23.07 2.22-.04 2.22-.13 2.21-.25 2.2-.34 2.19-.45 2.17-.56 2.14-.66 2.11-.76 2.08-.87 2.05-.97 2.01-1.08 1.96-1.18 1.91-1.28 1.86-1.39 1.8-1.5z"/><path id="_396799816" class="fil1" d="M679.603 1043.52 1815.48 2179.4l-3.53-1.71-3.52-1.76-3.5-1.81-3.47-1.87-3.46-1.91-3.43-1.96-3.42-2.01-3.39-2.05-3.36-2.1-3.35-2.15-3.32-2.2-3.3-2.23-3.28-2.29-3.25-2.32-3.23-2.37-3.21-2.42-3.18-2.45-3.15-2.5-3.13-2.54-3.11-2.57-3.08-2.62-3.05-2.66-3.03-2.69-3-2.74-2.97-2.77L597.876 986.82l2.974 2.771 3 2.733 3.027 2.695 3.053 2.657 3.079 2.614 3.105 2.58 3.13 2.54 3.156 2.5 3.181 2.45 3.204 2.41 3.229 2.37 3.254 2.33 3.277 2.28 3.301 2.24 3.322 2.2 3.346 2.15 3.369 2.1 3.391 2.05 3.412 2.01 3.435 1.96 3.454 1.91 3.477 1.86 3.497 1.82 3.517 1.76z"/><path id="_396797104" class="fil1" d="M993.298 591.935 2129.18 1727.82l2.79 3 2.74 3.02 2.71 3.06 2.68 3.07 2.63 3.1 2.59 3.13 2.56 3.15 2.51 3.18 2.47 3.19 2.43 3.22 2.38 3.25 2.35 3.26 2.29 3.29 2.26 3.31 2.21 3.33 2.16 3.36 2.12 3.37 2.07 3.4 2.02 3.41 1.98 3.44 1.93 3.45 1.87 3.48 1.83 3.49 1.78 3.51 1.73 3.53 1.67 3.55 1.62 3.56 1.58 3.59L1055.25 684.635l-1.57-3.584-1.62-3.565-1.68-3.548-1.72-3.531-1.78-3.511-1.83-3.493-1.87-3.475-1.93-3.454-1.98-3.435-2.02-3.414-2.07-3.395-2.12-3.374-2.16-3.354-2.21-3.331-2.26-3.311-2.3-3.288-2.34-3.267-2.38-3.243-2.43-3.221-2.47-3.198-2.51-3.174-2.56-3.15-2.59-3.127-2.63-3.101-2.68-3.077-2.707-3.052-2.748-3.026z"/><path id="_396814816" class="fil1" d="M1562.02 1504.17 2697.9 2640.05l1.66 1.74 1.54 1.8 1.44 1.87 1.34 1.92 1.22 1.96 1.12 2.02 1.02 2.06.9 2.09.8 2.13.7 2.16.58 2.19.48 2.2.37 2.23.27 2.23.16 2.24.05 2.25-.05 2.25-.16 2.25-.27 2.23-.37 2.22-.48 2.21-.59 2.18-.69 2.16-.8 2.13-.9 2.1-1.02 2.06-1.12 2.01-1.23 1.97-1.33 1.92-1.44 1.86-1.54 1.8-1.66 1.74-1135.88-1135.88 1.66-1.74 1.54-1.8 1.44-1.86 1.33-1.92 1.23-1.97 1.12-2.02 1.01-2.05.91-2.1.8-2.13.69-2.16.59-2.18.48-2.21.37-2.22.27-2.24.16-2.24.05-2.25-.05-2.25-.16-2.24-.27-2.24-.37-2.22-.48-2.21-.59-2.18-.69-2.16-.8-2.13-.91-2.1-1.01-2.05-1.12-2.02-1.23-1.97-1.33-1.91-1.44-1.87-1.54-1.8z"/><path id="_396796816" class="fil1" d="M951.374 1241.43 2087.26 2377.31l1.11 1.19 1.04 1.29.96 1.38.88 1.49.8 1.57.71 1.66.64 1.74.54 1.82.47 1.89.38 1.96.29 2.02.2 2.09.12 2.15.03 2.19-.06 2.25-.15 2.29-.25 2.33-.34 2.36-.42 2.4-.53 2.43-.62 2.44-.71 2.47-.81 2.48L955.655 1287.32l.812-2.48.714-2.47.619-2.45.525-2.42.428-2.4.337-2.36.245-2.33.152-2.29.061-2.25-.028-2.2-.117-2.14-.204-2.09-.293-2.02-.378-1.97-.465-1.89-.548-1.81-.634-1.74-.715-1.66-.798-1.58-.878-1.48-.961-1.39-1.038-1.28z"/><path id="_396805408" class="fil1" d="M883.066 1242.6 2018.95 2378.49l1.25 1.28 1.19 1.39 1.13 1.48 1.07 1.56.99 1.66.93 1.74.86 1.81.78 1.89.72 1.96.63 2.02.57 2.08.48 2.14.41 2.2.32 2.24.24 2.29.16 2.32.07 2.36-.01 2.4-.1 2.42-.2 2.44-.28 2.46-.38 2.48L893.899 1287.23l.378-2.48.286-2.46.192-2.45.103-2.42.016-2.39-.074-2.36-.158-2.33-.242-2.28-.324-2.24-.405-2.2-.485-2.14-.562-2.08-.638-2.02-.714-1.96-.786-1.89-.858-1.81-.928-1.74-.996-1.66-1.063-1.57-1.128-1.48-1.193-1.38z"/><path id="_396813280" class="fil1" d="M815.431 1243.87 1951.31 2379.76l1.43 1.38 1.38 1.47 1.33 1.57 1.28 1.65 1.22 1.73 1.17 1.82 1.11 1.88 1.05 1.95.99 2.02.92 2.08.85 2.13.79 2.19.71 2.23.64 2.28.56 2.32.48 2.36.4 2.38.32 2.41.23 2.44.14 2.45.06 2.47L832.486 1287.09l-.053-2.47-.143-2.45-.231-2.44-.317-2.41-.401-2.39-.482-2.35-.561-2.32-.638-2.28-.712-2.23-.784-2.19-.855-2.13-.922-2.08-.987-2.02-1.05-1.95-1.11-1.89-1.17-1.81-1.224-1.73-1.278-1.65-1.33-1.57-1.38-1.47z"/><path id="_396804088" class="fil1" d="M750.089 1246.71 1885.97 2382.59l1.59 1.57 1.56 1.65 1.52 1.73 1.47 1.8 1.43 1.88 1.38 1.95 1.33 2.02 1.27 2.07 1.22 2.13 1.16 2.19 1.09 2.23 1.03 2.27.95 2.32.89 2.35.81 2.38.73 2.41.65 2.43.57 2.45.48 2.46L771.214 1287l-.479-2.47-.566-2.45-.651-2.43-.731-2.4-.81-2.39-.885-2.35-.958-2.31-1.026-2.28-1.092-2.23-1.157-2.18-1.217-2.13-1.275-2.07-1.329-2.02-1.379-1.95-1.429-1.88-1.474-1.81-1.517-1.73-1.557-1.64z"/><path id="_396822784" class="fil1" d="M905.104 1433.53 2040.99 2569.42l-8.68 25.12-.07.2-.08.21-.08.21-.09.2-.1.2-.09.21-.1.2-.11.2L895.712 1460.28l.105-.2.101-.2.095-.2.092-.2.089-.21.083-.2.079-.21.074-.21z"/><path id="_396795616" class="fil1" d="M895.712 1460.28 2031.59 2596.17v19.37L895.712 1479.66z"/><path id="_396823384" class="fil1" d="M895.712 1479.66 2031.59 2615.54h-3.13L892.581 1479.66z"/><path id="_396822016" class="fil1" d="M773.762 1479.66 1909.64 2615.54h-3.13L770.632 1479.66z"/><path id="_396796432" class="fil1" d="M892.581 1479.66 2028.46 2615.54v35.8l-.08 3.04-.23 3.01-.38 2.96-.52 2.92-.67 2.87-.8 2.81-.94 2.76-1.07 2.69-1.19 2.63-1.32 2.56-1.43 2.49-1.55 2.41-1.66 2.33-1.77 2.25-1.87 2.16-1.97 2.06-2.07 1.97-2.15 1.88-2.25 1.76-2.33 1.66-2.41 1.55-2.49 1.44-2.56 1.31-2.63 1.2-2.69 1.07-2.76.93-2.81.81-2.87.66-2.92.53-2.97.38-3 .23-3.05.08-3.04-.08-3.01-.23-2.96-.38-2.92-.53-2.87-.66-2.81-.81-2.76-.93-2.7-1.07-2.62-1.2-2.57-1.31-2.48-1.44-2.41-1.55-2.33-1.66-2.25-1.76L795.438 1561.25l2.246 1.77 2.33 1.66 2.412 1.55 2.488 1.44 2.56 1.31 2.629 1.2 2.696 1.06 2.756.94 2.815.8 2.868.67 2.917.53 2.965.37 3.007.24 3.045.07 3.044-.07 3.007-.24 2.965-.37 2.917-.53 2.869-.67 2.814-.8 2.756-.94 2.696-1.06 2.629-1.2 2.56-1.31 2.489-1.44 2.411-1.55 2.33-1.66 2.246-1.77 2.158-1.87 2.067-1.97 1.97-2.06 1.871-2.16 1.768-2.25 1.661-2.33 1.548-2.41 1.435-2.49 1.316-2.56 1.194-2.63 1.068-2.69.938-2.76.803-2.81.666-2.87.526-2.92.379-2.96.23-3.01.078-3.05z"/><path id="_396802432" class="fil1" d="M916.546 1400.44 2052.43 2536.33l-11.44 33.09L905.104 1433.53z"/><path id="_396801448" class="fil1" d="M932.365 1354.67 2068.25 2490.55l-15.82 45.78L916.546 1400.44z"/><path id="_396798160" class="fil1" d="M955.655 1287.32 2091.54 2423.2l-23.29 67.35L932.365 1354.67z"/><path id="_478206472" class="fil1" d="m987.966 973.613 220.741 228.584 1.597-1.443 143.198 82.443 21.005 21.005-6.227 6.225 193.743 193.743c18.2 18.2 18.2 47.98-.001 66.18-.201.2-.403.4-.607.595-18.248 17.602-47.574 17.404-65.573-.595L1302.1 1376.608l-6.227 6.226-21.003-21.004-84.853-142.733 1.486-1.343-220.315-228.14C871.095 1080 767.14 1085.122 679.603 1043.52c-37.837-17.983-72.305-44.748-101.76-77.092-29.103-31.958-53.456-69.565-71.411-109.641-50.509-112.73-50.12-245.241 36.63-329.14 86.094-83.267 219.747-78.22 331.532-22.977 39.42 19.479 76.206 45.234 107.197 75.527 31.434 30.727 56.992 66.125 73.463 104.438 38.24 88.957 28.619 192.436-67.289 288.978zm-50.102 262.464h.056c19.43 0 26.91 24.702 17.736 51.245l-23.29 67.346-15.82 45.777-11.442 33.089-8.674 25.12c-.192.557-.433 1.1-.718 1.63v19.372h-3.13v35.798c0 32.675-26.734 59.41-59.41 59.41-32.675 0-59.41-26.735-59.41-59.41v-35.798h-3.13v-19.62h.298a11.685 11.685 0 0 1-1.049-2.207l-8.75-25.102-11.535-33.09-15.93-45.687-23.38-67.064c-9.169-26.29-2.1-50.809 17.05-50.809h.055c19.178 0 39.188 24.567 43.824 50.923-4.636-26.356 6.83-50.923 26.035-50.923h.055c19.206 0 35.11 24.61 35.182 51.015-.072-26.404 15.612-51.015 34.901-51.015h.057c19.345 0 30.992 24.652 26.454 51.154 4.538-26.502 24.591-51.154 43.965-51.154z"/></g></g><path class="fil2" d="M1024 0c565.539 0 1024 458.461 1024 1024s-458.461 1024-1024 1024S0 1589.539 0 1024 458.461 0 1024 0z"/><path style="fill:#b32c04;fill-rule:nonzero" d="m966.178 951.052 289.742 300.038-14.13 18.74-289.739-300.034z"/><path class="fil2" d="m598.981 510.729-44.988 359.609"/><path class="fil4" d="m604.786 511.438-44.988 359.609-11.609-1.416 44.988-359.609z"/><path class="fil2" d="m692.574 494.783-57.783 483.912"/><path class="fil4" d="m698.379 495.468-57.784 483.913-11.609-1.371 57.784-483.913z"/><path class="fil2" d="m785.415 517.039-61.441 516.821"/><path class="fil4" d="m791.219 517.724-61.441 516.816-11.608-1.37 61.44-516.818z"/><path class="fil2" d="m509.211 764.176 518.289 47.449"/><path class="fil4" d="m509.737 758.372 518.293 47.448-1.06 11.609-518.285-47.449z"/><path class="fil2" d="m879.761 534.127-61.44 498.533"/><path class="fil4" d="m885.565 534.835-61.44 498.535-11.607-1.41 61.438-498.541z"/><path class="fil2" d="m965.599 606.53-46.723 391.28"/><path class="fil4" d="m971.403 607.216-46.722 391.28-11.609-1.371 46.722-391.282z"/><path class="fil2" d="m510.037 670.658 518.293 47.449"/><path class="fil4" d="m510.564 664.854 518.286 47.448-1.05 11.609-518.289-47.448z"/><path class="fil2" d="m528.787 580.923 445.197 46.024"/><path class="fil4" d="m529.381 575.119 445.197 46.023-1.188 11.609-445.197-46.023z"/><path class="fil2" d="m609.389 513.251 269.901 24.708"/><path class="fil4" d="m609.915 507.447 269.901 24.709-1.053 11.609-269.9-24.709z"/><path class="fil2" d="m540.234 866.668 456.98 47.449"/><path class="fil4" d="m540.828 860.864 456.98 47.448-1.19 11.609-456.978-47.448z"/><path class="fil2" d="m613.609 965.662 300.568 31.21"/><path class="fil4" d="m614.203 959.858 300.57 31.21-1.19 11.612-300.568-31.213z"/><path d="M853.939 546.532c-95.62-47.255-208.291-53.172-278.521 14.75-70.81 68.485-69.552 180.17-26.394 276.494 15.886 35.458 37.495 68.8 63.37 97.212 25.52 28.025 55.054 51.059 87.135 66.306 73.686 35.02 162.484 28.648 248.708-54.073 85.98-82.485 95.94-169.96 64.059-244.123-14.045-32.67-35.983-62.996-63.043-89.447-27.504-26.886-60.216-49.775-95.315-67.118zm-310.877-18.885c86.094-83.266 219.748-78.22 331.533-22.977 39.42 19.479 76.206 45.234 107.197 75.527 31.434 30.728 56.992 66.125 73.462 104.438 39.199 91.186 28.107 197.63-74.66 296.22-102.96 98.779-210.708 105.574-300.99 62.666-37.837-17.983-72.305-44.748-101.76-77.092-29.103-31.959-53.456-69.565-71.412-109.641-50.508-112.73-50.118-245.241 36.63-329.14z" style="fill:#bf360c;fill-rule:nonzero"/><path d="M553.229 538.159c-85.227 82.428-78.768 211.505-33.451 312.649 17.206 38.405 40.538 74.654 68.878 105.775 27.467 30.162 60.279 56.17 97.225 73.73 16.645 7.91 34.082 14.113 52.068 18.17 89.258 20.135 168.692-16.944 232.52-78.18 63.168-60.6 103.744-137.785 87.498-226.984-3.314-18.198-8.846-35.922-16.148-52.908-16.149-37.566-41.099-71.26-70.25-99.756-30.167-29.488-65.638-54.188-103.453-72.874-98.817-48.831-229.658-62.05-314.887 20.379zm307.19-4.739c36.223 17.901 70.158 41.522 99.057 69.773 27.518 26.898 51.013 58.669 66.256 94.13 5.727 13.323 10.229 27.16 13.273 41.342 18.36 85.548-19.81 160.748-80.642 219.108-32.332 31.02-70.323 56.751-113.594 69.57-36.352 10.768-73.728 11.544-110.454 2.117-14.14-3.63-27.88-8.694-41.062-14.958-34.858-16.568-65.763-41.217-91.671-69.668-27.098-29.756-49.448-64.354-65.902-101.079-32.16-71.779-45.252-160.507-11.765-234.247 10.028-22.083 23.9-41.871 41.338-58.738 79.83-77.207 203.06-62.863 295.166-17.35z" style="fill:#cc4f29"/><path style="fill:none;fill-rule:nonzero" d="M1514.8 1500.89"/><path d="m1280.76 1355.26 66.18-66.18 215.087 215.086c18.2 18.2 18.2 47.98 0 66.18h-.002c-18.2 18.2-47.98 18.2-66.18 0L1280.76 1355.26z" style="fill:#1a1a1a"/><path class="fil9" d="m1274.87 1361.83-84.85-142.73 20.28-18.35 143.2 82.45 21.01 21-78.64 78.63z"/><path d="m1280.76 1355.26 32.489-32.489 248.168 248.168c-18.25 17.601-47.573 17.406-65.57-.593L1280.76 1355.26z" style="fill:#161616"/><path style="fill:#1b1b1b" d="m1274.87 1361.83-84.85-142.73 10.26-9.29 134.31 134.31-38.72 38.71z"/><path class="fil9" d="M773.762 1456.04h118.819v59.41c0 32.675-26.733 59.409-59.41 59.409-32.675 0-59.409-26.734-59.409-59.41v-59.409z"/><path class="fil12" d="M727.335 1236.08h.056c19.177 0 39.187 24.567 43.823 50.923 4.505 25.616 8.427 47.804 11.831 67.122 3.003 17.04 5.678 32.211 8.07 45.728 2.15 12.143 4.089 23.119 5.85 33.096 1.602 9.087 3.083 17.408 4.44 25.077 1.11 6.29-4.733 11.07-12.849 11.015h-.024c-8.151-.057-16.458-4.922-18.651-11.209l-8.751-25.102c-3.467-9.945-7.3-20.936-11.535-33.09-4.705-13.507-9.993-28.666-15.93-45.687-6.73-19.304-14.457-41.474-23.38-67.064-9.168-26.29-2.1-50.809 17.05-50.809z"/><path class="fil13" d="M797.305 1236.08h-.056c-19.204 0-30.67 24.567-26.035 50.923 4.505 25.616 8.428 47.804 11.831 67.122 3.003 17.04 5.678 32.211 8.07 45.728 2.15 12.143 4.089 23.119 5.85 33.096 1.603 9.087 3.084 17.408 4.44 25.077 1.111 6.29 8.622 11.162 16.772 11.218h.024c8.15.056 14.84-4.702 14.815-11.023-.032-7.65-.052-16.003-.088-25.1-.038-9.936-.073-20.924-.108-33.078-.04-13.53-.102-28.691-.156-45.744-.063-19.337-.108-41.568-.178-67.204-.072-26.404-15.975-51.015-35.181-51.015z"/><path class="fil12" d="M867.388 1236.08h.057c19.345 0 30.992 24.652 26.454 51.154-4.396 25.678-8.19 47.883-11.5 67.239a50413.282 50413.282 0 0 0-7.809 45.785c-2.063 12.14-3.94 23.115-5.64 33.083-1.548 9.082-2.967 17.442-4.271 25.098-1.074 6.304-8.599 11.066-16.761 11.01h-.024c-8.174-.056-14.852-4.907-14.878-11.228-.032-7.65-.052-16.003-.088-25.1-.038-9.937-.073-20.924-.108-33.078-.04-13.53-.102-28.691-.156-45.744-.063-19.337-.108-41.568-.178-67.204-.072-26.404 15.612-51.015 34.902-51.015z"/><path class="fil13" d="M937.92 1236.08h-.057c-19.373 0-39.426 24.652-43.964 51.154-4.396 25.678-8.19 47.883-11.5 67.239a50413.282 50413.282 0 0 0-7.809 45.785c-2.063 12.14-3.94 23.115-5.64 33.083-1.548 9.082-2.967 17.442-4.271 25.098-1.074 6.304 4.793 11.158 12.979 11.216h.025c8.161.056 16.574-4.71 18.747-10.997 2.65-7.663 5.528-16.009 8.674-25.121 3.438-9.956 7.237-20.916 11.442-33.089 4.67-13.53 9.916-28.697 15.82-45.777 6.695-19.372 14.404-41.64 23.29-67.347 9.173-26.542 1.694-51.244-17.736-51.244z"/><path class="fil9" d="M770.632 1460.03h125.08v19.62h-125.08z"/></g></svg>