<svg version="1.1" id="Layer_1" xmlns="http://www.w3.org/2000/svg" xmlns:xlink="http://www.w3.org/1999/xlink" x="0px" y="0px"
	 width="100%" viewBox="0 0 477 221" enable-background="new 0 0 477 221" xml:space="preserve">
<path fill="#FEFEFF" opacity="1.000000" stroke="none" 
	d="
M357.000000,222.000000 
	C238.000015,222.000000 119.500046,222.000000 1.000048,222.000000 
	C1.000032,148.333374 1.000032,74.666733 1.000016,1.000077 
	C159.999939,1.000051 318.999878,1.000051 477.999878,1.000026 
	C477.999908,74.666588 477.999908,148.333176 477.999939,221.999878 
	C437.833344,222.000000 397.666656,222.000000 357.000000,222.000000 
M59.621593,61.591877 
	C60.078869,61.498341 60.536148,61.404804 61.895725,61.542759 
	C65.972160,61.466858 70.048599,61.390961 74.746040,61.605740 
	C75.181679,61.503445 75.617310,61.401150 76.948776,61.541691 
	C82.006989,61.465702 87.065208,61.389713 92.504913,61.567493 
	C92.504913,61.567493 92.885490,61.312363 93.800385,61.541775 
	C97.869652,61.466202 101.938911,61.390633 106.652695,61.611378 
	C107.105667,61.511658 107.558647,61.411934 108.902519,61.562893 
	C111.179710,61.562893 113.456902,61.562893 115.644165,61.562893 
	C117.528625,73.088554 110.843742,81.478355 99.918571,81.817032 
	C95.287727,81.960587 90.651703,81.936928 85.391457,81.806145 
	C84.127693,82.194336 82.863930,82.582527 80.906502,82.159492 
	C72.349030,82.074448 63.791557,81.989403 54.901260,81.655586 
	C54.514263,81.735451 54.127262,81.815315 53.065903,81.694443 
	C52.136658,81.753090 51.207417,81.811729 49.919811,81.621559 
	C49.512516,81.708412 49.105225,81.795265 47.825439,81.685028 
	C42.884296,83.047203 46.018993,86.681282 45.324341,89.790764 
	C45.376938,90.157234 45.429535,90.523712 45.306499,91.824196 
	C45.365547,97.576454 45.424599,103.328705 45.295792,109.500206 
	C45.295792,109.500206 45.483746,109.919403 45.307106,110.834816 
	C45.370033,114.251854 45.432957,117.668892 45.272774,121.678329 
	C45.347076,122.086784 45.421379,122.495247 45.308643,123.833443 
	C45.371056,129.250946 45.433472,134.668457 45.272770,140.678360 
	C45.347073,141.086807 45.421379,141.495255 45.309109,142.819336 
	C45.365013,146.243271 45.420918,149.667221 45.288105,153.499924 
	C45.288105,153.499924 45.476376,153.908905 45.304790,154.841202 
	C45.362015,160.591568 45.419243,166.341949 45.287750,172.499695 
	C45.287750,172.499695 45.475925,172.907303 45.305676,173.773117 
	C45.305676,175.472015 45.305676,177.170914 45.305676,178.910614 
	C49.269463,178.910614 52.491684,178.910614 56.043613,178.910614 
	C56.043613,177.521347 56.043613,176.280838 56.247261,174.801483 
	C56.337074,174.462189 56.263805,174.175278 56.195183,173.023865 
	C56.138649,166.035202 56.082111,159.046555 56.237640,151.817596 
	C56.336006,151.474197 56.265354,151.182449 56.195026,150.025330 
	C56.144550,137.362976 56.094078,124.700615 56.247986,111.800652 
	C56.338451,111.462059 56.265671,111.175652 56.195469,110.024651 
	C56.195469,104.294296 56.195469,98.563934 56.195469,92.145287 
	C62.722458,92.145287 68.629654,92.145287 74.982246,92.458366 
	C75.489861,92.354050 75.997475,92.249733 77.259132,92.417900 
	C84.588120,92.490051 91.919868,92.725243 99.245529,92.601227 
	C115.709564,92.322502 127.321495,80.660133 127.121292,64.357697 
	C127.108818,63.918613 127.096344,63.479530 127.826881,62.917995 
	C138.264130,65.655968 143.199966,73.247940 145.530960,83.751587 
	C145.664185,84.184395 145.797409,84.617203 145.736160,85.838005 
	C145.576263,93.714577 142.418793,100.259041 136.213730,105.986580 
	C131.121704,109.907166 125.337883,111.424927 118.950607,111.365524 
	C106.623711,111.250877 94.294899,111.330925 81.966949,111.359116 
	C80.705658,111.362000 79.444809,111.560997 78.153603,111.671570 
	C78.153603,132.380997 78.153603,152.693222 78.014900,173.883530 
	C78.014900,175.572052 78.014900,177.260559 78.014900,178.885208 
	C80.816185,178.885208 82.905327,178.885208 85.841568,179.051422 
	C88.966026,179.570068 88.839996,177.535507 88.827614,175.400772 
	C88.783188,167.742081 88.820801,160.082962 88.822754,152.423996 
	C88.825287,142.477402 88.823372,132.530807 88.823372,122.025612 
	C100.543640,122.025612 111.823074,122.179489 123.095978,121.974548 
	C131.383759,121.823883 138.562180,118.645905 145.097153,112.468918 
	C155.135788,102.508842 158.367844,90.683472 154.866531,76.464211 
	C154.604233,76.236038 154.341934,76.007874 154.153046,75.030762 
	C149.993378,61.667515 140.165405,54.589405 127.359627,51.077732 
	C125.498062,34.718960 117.106606,24.165470 102.888382,21.513948 
	C97.100037,20.434494 90.969948,21.187580 84.254593,20.949858 
	C83.502907,21.003601 82.751213,21.057344 81.075066,20.945852 
	C62.430531,20.938047 43.785988,20.921280 25.141468,20.934202 
	C22.902927,20.935753 20.082058,20.268318 20.069189,23.934530 
	C20.025599,36.352699 20.052557,48.771122 20.052557,61.311882 
	C28.094933,61.311882 35.545742,61.311882 43.653877,61.608444 
	C44.113056,61.503201 44.572235,61.397961 45.924507,61.540100 
	C50.272369,61.457771 54.620235,61.375439 59.621593,61.591877 
M330.372467,145.965500 
	C335.594635,142.543549 341.659485,139.925079 345.855286,135.524521 
	C353.485657,127.521744 350.986328,119.672737 340.684692,115.994164 
	C329.654510,112.055435 318.346100,112.670586 307.140839,114.441040 
	C296.180908,116.172722 292.589600,120.007874 291.399811,131.197220 
	C290.415771,140.451630 290.311859,149.805679 289.984070,159.121445 
	C289.799377,164.369781 289.950775,169.629929 289.950775,174.836884 
	C292.839447,174.836884 294.971527,174.836884 297.982178,174.836884 
	C297.982178,166.940582 297.982178,159.232071 297.982178,152.802490 
	C309.259583,150.425079 319.433685,148.280243 330.372467,145.965500 
M255.835983,158.642502 
	C249.272614,150.415009 242.709244,142.187515 236.379745,134.253204 
	C231.351944,136.769592 231.547165,139.277237 233.815750,142.449722 
	C240.688065,152.060211 247.098419,162.022873 254.368896,171.316254 
	C257.356262,175.134842 257.709900,178.006165 256.139191,182.372803 
	C252.538254,192.383484 249.501343,202.601593 246.451187,212.800018 
	C246.073929,214.061401 247.007553,215.714828 247.333710,217.186569 
	C248.866455,216.511673 250.772690,216.189636 251.832474,215.067917 
	C253.018005,213.813110 253.532852,211.869736 254.173935,210.163773 
	C263.188202,186.175934 272.174530,162.177567 281.166595,138.181396 
	C281.984222,135.999496 283.014709,133.863159 283.508423,131.609726 
	C283.726959,130.612274 283.043213,128.553802 282.435791,128.412811 
	C281.036865,128.088135 279.118378,128.191147 278.004211,128.969818 
	C276.932678,129.718704 276.558350,131.514435 275.962616,132.887070 
	C271.204468,143.850708 266.466461,154.823090 261.468628,166.379349 
	C259.510590,163.715591 257.866058,161.478317 255.835983,158.642502 
M356.646545,170.918228 
	C372.218597,177.712738 383.780945,171.155624 394.310852,158.771408 
	C395.092133,164.335480 395.751465,169.031052 396.438995,173.927399 
	C398.241943,173.927399 399.970978,173.927399 401.505157,173.927399 
	C401.198486,168.171494 400.960602,162.703873 400.601776,157.244202 
	C400.220642,151.444748 400.091064,145.595474 399.194550,139.870850 
	C397.799500,130.962860 394.422791,128.644852 385.451538,129.492142 
	C371.250519,130.833359 355.939667,144.933014 354.188324,159.012573 
	C353.732422,162.677917 355.387299,166.605820 356.646545,170.918228 
M195.071381,135.539246 
	C192.698090,137.618698 190.087662,139.485596 187.996826,141.818222 
	C182.179199,148.308624 178.167191,155.555069 178.914108,164.761551 
	C179.320129,169.766220 182.049286,172.276962 186.661118,173.038422 
	C198.026978,174.914993 207.671844,171.667389 215.421875,163.060822 
	C216.494019,161.870193 217.486176,160.607529 219.276443,158.469162 
	C220.098190,164.348389 220.755646,169.052185 221.433792,173.904083 
	C223.272461,173.904083 224.990921,173.904083 226.502594,173.904083 
	C226.195724,168.124496 225.993256,162.651978 225.592545,157.194016 
	C225.118439,150.736542 224.854660,144.228012 223.792511,137.859558 
	C222.778412,131.779190 220.024368,129.808228 213.881927,129.460175 
	C207.126907,129.077377 201.175522,131.429535 195.071381,135.539246 
M444.550079,165.975449 
	C436.166321,165.729630 427.782562,165.483810 419.637421,165.244995 
	C419.637421,145.017700 419.637421,125.656776 419.637421,106.340897 
	C417.013672,106.340897 414.769745,106.340897 412.371979,106.340897 
	C412.371979,117.617393 412.566833,128.576508 412.317383,139.525497 
	C412.065704,150.573822 411.373199,161.612106 410.836884,173.471222 
	C429.312347,173.471222 447.915253,173.559631 466.515747,173.389328 
	C469.844818,173.358871 472.859436,171.871735 474.162079,167.039886 
	C464.253448,166.671509 454.894989,166.323593 444.550079,165.975449 
M164.944443,131.806305 
	C165.409973,146.063660 165.875504,160.321030 166.345749,174.722931 
	C170.821411,175.338181 173.305176,173.997299 173.208237,169.285141 
	C173.102310,164.135483 173.397232,158.961075 173.003021,153.837021 
	C171.896271,139.451385 170.608902,125.077393 169.125626,110.726425 
	C168.979660,109.314201 166.991562,108.092377 165.858505,106.782173 
	C164.976089,108.534752 163.295563,110.314529 163.354187,112.035049 
	C163.568405,118.322380 164.362350,124.589966 164.944443,131.806305 
z"/>
<path fill="#072EDE" opacity="1.000000" stroke="none" 
	d="
M56.043613,175.040314 
	C56.043613,176.280838 56.043613,177.521347 56.043613,178.910614 
	C52.491684,178.910614 49.269463,178.910614 45.305676,178.910614 
	C45.305676,177.170914 45.305676,175.472015 45.502579,173.264282 
	C45.834270,172.468369 45.759930,172.247330 45.476471,172.092316 
	C45.419243,166.341949 45.362015,160.591568 45.502167,154.298676 
	C45.833603,153.469086 45.759365,153.247421 45.476822,153.091156 
	C45.420918,149.667221 45.365013,146.243271 45.549564,142.209625 
	C45.691975,141.095261 45.593929,140.590607 45.495888,140.085968 
	C45.433472,134.668457 45.371056,129.250946 45.549328,123.216675 
	C45.691967,122.095245 45.593922,121.590584 45.495880,121.085930 
	C45.432957,117.668892 45.370033,114.251854 45.505196,110.296371 
	C45.835846,109.470184 45.762634,109.244530 45.483646,109.080963 
	C45.424599,103.328705 45.365547,97.576454 45.542641,91.124588 
	C45.743523,90.062042 45.708263,89.699112 45.673004,89.336174 
	C46.018993,86.681282 42.884296,83.047203 48.657578,81.817711 
	C49.752533,81.923721 50.015350,81.897049 50.278172,81.870377 
	C51.207417,81.811729 52.136658,81.753090 53.776745,81.831436 
	C54.736420,81.947067 54.985252,81.925705 55.234085,81.904350 
	C63.791557,81.989403 72.349030,82.074448 81.522583,82.621864 
	C83.431786,82.719246 84.724907,82.354256 86.018028,81.989273 
	C90.651703,81.936928 95.287727,81.960587 99.918571,81.817032 
	C110.843742,81.478355 117.528625,73.088554 115.644165,61.562893 
	C113.456902,61.562893 111.179710,61.562893 108.435074,61.302879 
	C107.967628,61.042870 107.881966,60.783665 107.926773,60.588665 
	C107.971581,60.393665 108.009216,59.995274 108.004173,59.997730 
	C107.999130,60.000187 107.993118,60.009933 108.217514,59.901749 
	C108.721863,59.590805 108.911346,59.323822 109.005020,58.996143 
	C108.999695,58.999672 108.992699,59.010353 109.217102,58.901878 
	C109.721451,58.590439 109.911201,58.323383 110.005219,57.995949 
	C109.999695,57.999672 109.992310,58.010765 110.216660,57.902023 
	C110.720985,57.590279 110.910919,57.323235 111.005257,56.995907 
	C110.999695,56.999668 110.992249,57.010841 111.216515,56.902031 
	C111.720695,56.590275 111.910637,56.323307 112.005150,55.996002 
	C111.999695,55.999683 111.992355,56.010620 112.221619,55.899269 
	C112.658676,55.522308 112.866486,55.256702 113.274460,54.890854 
	C113.724266,54.607861 113.897476,54.369549 114.378555,54.049530 
	C115.535576,54.018650 116.308281,54.013916 117.370552,54.162437 
	C120.436920,57.182842 123.213722,60.049988 126.000641,63.222794 
	C126.321465,64.016708 126.632187,64.504974 126.942902,64.993233 
	C127.321495,80.660133 115.709564,92.322502 99.245529,92.601227 
	C91.919868,92.725243 84.588120,92.490051 76.388840,92.248367 
	C75.191307,92.100998 74.864082,92.123146 74.536850,92.145287 
	C68.629654,92.145287 62.722458,92.145287 56.195469,92.145287 
	C56.195469,98.563934 56.195469,104.294296 56.090488,110.757538 
	C56.004871,111.673042 56.024235,111.855644 56.043602,112.038254 
	C56.094078,124.700615 56.144550,137.362976 56.085991,150.762726 
	C55.993164,151.686050 56.009369,151.871964 56.025578,152.057892 
	C56.082111,159.046555 56.138649,166.035202 56.089699,173.757568 
	C56.004017,174.674286 56.023815,174.857300 56.043613,175.040314 
z"/>
<path fill="#082EDE" opacity="1.000000" stroke="none" 
	d="
M144.509995,112.809250 
	C138.562180,118.645905 131.383759,121.823883 123.095978,121.974548 
	C111.823074,122.179489 100.543640,122.025612 88.823372,122.025612 
	C88.823372,132.530807 88.825287,142.477402 88.822754,152.423996 
	C88.820801,160.082962 88.783188,167.742081 88.827614,175.400772 
	C88.839996,177.535507 88.966026,179.570068 85.426384,178.658539 
	C85.018700,177.852539 85.026192,177.439438 85.250038,176.917633 
	C85.736710,176.610870 85.923393,176.352386 86.246025,175.925842 
	C86.736931,175.616852 86.923866,175.355209 87.171043,174.972229 
	C87.200142,174.932755 87.084618,174.954330 86.752151,175.086609 
	C86.261971,175.395325 86.073196,175.654800 85.754044,176.086441 
	C85.270882,176.395538 85.082870,176.652679 84.701004,177.077637 
	C82.335770,175.792984 80.244682,174.399216 78.153603,173.005432 
	C78.153603,152.693222 78.153603,132.380997 78.153603,111.671570 
	C79.444809,111.560997 80.705658,111.362000 81.966949,111.359116 
	C94.294899,111.330925 106.623711,111.250877 118.950607,111.365524 
	C125.337883,111.424927 131.121704,109.907166 136.699310,106.196854 
	C139.626587,108.541161 142.068283,110.675201 144.509995,112.809250 
z"/>
<path fill="#092FE0" opacity="1.000000" stroke="none" 
	d="
M329.990143,146.050446 
	C319.433685,148.280243 309.259583,150.425079 297.982178,152.802490 
	C297.982178,159.232071 297.982178,166.940582 297.982178,174.836884 
	C294.971527,174.836884 292.839447,174.836884 289.950775,174.836884 
	C289.950775,169.629929 289.799377,164.369781 289.984070,159.121445 
	C290.311859,149.805679 290.415771,140.451630 291.399811,131.197220 
	C292.589600,120.007874 296.180908,116.172722 307.140839,114.441040 
	C318.346100,112.670586 329.654510,112.055435 340.684692,115.994164 
	C350.986328,119.672737 353.485657,127.521744 345.855286,135.524521 
	C341.659485,139.925079 335.594635,142.543549 329.990143,146.050446 
M329.609619,119.597862 
	C324.347748,119.734756 318.977356,119.245331 313.845856,120.134567 
	C301.937164,122.198181 297.875610,127.615059 298.049438,139.735352 
	C298.092133,142.714157 298.894440,145.045670 302.455231,145.070938 
	C312.996399,145.145721 323.289642,143.721222 332.977173,139.373550 
	C339.023834,136.659882 342.769806,131.861069 341.787354,127.945450 
	C340.348541,122.210854 335.493988,120.751221 329.609619,119.597862 
z"/>
<path fill="#0B31E0" opacity="1.000000" stroke="none" 
	d="
M256.028748,158.941772 
	C257.866058,161.478317 259.510590,163.715591 261.468628,166.379349 
	C266.466461,154.823090 271.204468,143.850708 275.962616,132.887070 
	C276.558350,131.514435 276.932678,129.718704 278.004211,128.969818 
	C279.118378,128.191147 281.036865,128.088135 282.435791,128.412811 
	C283.043213,128.553802 283.726959,130.612274 283.508423,131.609726 
	C283.014709,133.863159 281.984222,135.999496 281.166595,138.181396 
	C272.174530,162.177567 263.188202,186.175934 254.173935,210.163773 
	C253.532852,211.869736 253.018005,213.813110 251.832474,215.067917 
	C250.772690,216.189636 248.866455,216.511673 247.333710,217.186584 
	C247.007553,215.714828 246.073929,214.061401 246.451187,212.800018 
	C249.501343,202.601593 252.538254,192.383484 256.139191,182.372803 
	C257.709900,178.006165 257.356262,175.134842 254.368896,171.316254 
	C247.098419,162.022873 240.688065,152.060211 233.815750,142.449722 
	C231.547165,139.277237 231.351944,136.769592 236.379745,134.253204 
	C242.709244,142.187515 249.272614,150.415009 256.028748,158.941772 
z"/>
<path fill="#0028DE" opacity="1.000000" stroke="none" 
	d="
M42.996552,61.311882 
	C35.545742,61.311882 28.094933,61.311882 20.052557,61.311882 
	C20.052557,48.771122 20.025599,36.352699 20.069189,23.934530 
	C20.082058,20.268318 22.902927,20.935753 25.141468,20.934202 
	C43.785988,20.921280 62.430531,20.938047 81.535980,21.251871 
	C81.996887,21.557890 81.997490,22.005190 81.998886,22.002342 
	C82.000282,21.999495 82.005875,21.995964 81.774124,22.103603 
	C81.334145,22.477690 81.125908,22.744135 80.641739,23.153507 
	C79.247681,24.506229 78.129570,25.716022 76.790771,27.054478 
	C76.377846,27.458187 76.185616,27.733232 75.996536,28.004025 
	C75.999695,27.999771 76.008217,27.993334 75.783051,28.099247 
	C75.276558,28.406776 75.088791,28.674105 74.997108,29.003563 
	C74.999649,28.999975 75.006088,28.994370 74.741035,29.106415 
	C73.996124,29.795546 73.516266,30.372631 73.009903,31.115974 
	C72.983383,31.282228 72.980812,31.618927 72.532623,31.701637 
	C69.037392,31.731480 65.990341,31.678608 62.860359,31.499855 
	C62.461842,31.214153 62.221725,31.298136 61.591110,31.703197 
	C54.732601,31.727625 48.340054,31.674776 41.862965,31.496632 
	C41.462551,31.212200 41.220596,31.295767 40.603050,31.700668 
	C37.421368,31.721947 34.689198,31.664595 31.820568,31.493019 
	C31.455868,31.584328 31.227631,31.789862 30.964367,32.450356 
	C30.869122,35.950378 30.808899,38.995445 30.536100,42.163136 
	C30.460175,42.858074 30.596827,43.430389 30.814774,44.443695 
	C30.896065,46.784695 30.896065,48.684700 30.896065,51.052895 
	C38.084366,51.052895 44.520199,51.052895 50.937134,51.369377 
	C50.588409,52.460789 50.258579,53.235710 49.651428,54.151997 
	C48.253605,55.503853 47.133110,56.714348 45.791801,58.054386 
	C45.377792,58.459332 45.184589,58.734734 44.995361,59.005112 
	C44.999332,59.000092 45.008247,58.991001 44.758144,59.097313 
	C44.064472,59.736652 43.620903,60.269676 43.113945,60.923538 
	C43.050560,61.044376 42.996552,61.311882 42.996552,61.311882 
z"/>
<path fill="#0C32E1" opacity="1.000000" stroke="none" 
	d="
M356.359619,170.665680 
	C355.387299,166.605820 353.732422,162.677917 354.188324,159.012573 
	C355.939667,144.933014 371.250519,130.833359 385.451538,129.492142 
	C394.422791,128.644852 397.799500,130.962860 399.194550,139.870850 
	C400.091064,145.595474 400.220642,151.444748 400.601776,157.244202 
	C400.960602,162.703873 401.198486,168.171494 401.505157,173.927399 
	C399.970978,173.927399 398.241943,173.927399 396.438995,173.927399 
	C395.751465,169.031052 395.092133,164.335480 394.310852,158.771408 
	C383.780945,171.155624 372.218597,177.712738 356.359619,170.665680 
M383.610687,161.148422 
	C386.903748,155.858505 390.924713,150.869980 393.276611,145.190338 
	C395.446625,139.950058 392.617676,136.988968 386.992828,136.888702 
	C376.435150,136.700516 361.909912,149.295853 360.539734,159.827087 
	C359.856873,165.075531 363.091919,169.185486 368.315369,168.027145 
	C373.457031,166.886948 378.177307,163.846436 383.610687,161.148422 
z"/>
<path fill="#0C32E1" opacity="1.000000" stroke="none" 
	d="
M195.364868,135.325592 
	C201.175522,131.429535 207.126907,129.077377 213.881927,129.460175 
	C220.024368,129.808228 222.778412,131.779190 223.792511,137.859558 
	C224.854660,144.228012 225.118439,150.736542 225.592545,157.194016 
	C225.993256,162.651978 226.195724,168.124496 226.502594,173.904083 
	C224.990921,173.904083 223.272461,173.904083 221.433792,173.904083 
	C220.755646,169.052185 220.098190,164.348389 219.276443,158.469162 
	C217.486176,160.607529 216.494019,161.870193 215.421875,163.060822 
	C207.671844,171.667389 198.026978,174.914993 186.661118,173.038422 
	C182.049286,172.276962 179.320129,169.766220 178.914108,164.761551 
	C178.167191,155.555069 182.179199,148.308624 187.996826,141.818222 
	C190.087662,139.485596 192.698090,137.618698 195.364868,135.325592 
M213.841080,155.229614 
	C215.456284,151.611084 217.580093,148.123962 218.557648,144.340668 
	C219.773468,139.635239 217.379562,137.105331 212.565353,136.898026 
	C201.831650,136.435822 187.023376,148.965790 185.554382,159.753296 
	C184.810181,165.218246 188.007233,168.625504 193.784912,168.178207 
	C202.444656,167.507782 208.338654,162.269531 213.841080,155.229614 
z"/>
<path fill="#042BDF" opacity="1.000000" stroke="none" 
	d="
M125.990532,62.917133 
	C123.213722,60.049988 120.436920,57.182842 117.218399,53.864166 
	C116.498711,52.580090 116.220734,51.747543 115.931747,50.925385 
	C115.920731,50.935772 115.917831,50.904716 116.086098,50.903660 
	C116.636665,50.765572 116.740753,50.513245 116.460770,49.734116 
	C115.826591,41.610916 111.439301,36.578403 104.974686,32.693966 
	C104.217766,32.318619 103.487587,32.218868 102.321571,32.125824 
	C99.261429,31.964487 96.637108,31.796438 94.008911,31.457428 
	C94.005020,31.286470 93.954117,30.948256 93.841728,30.684715 
	C93.150551,29.943745 92.571762,29.466314 91.996643,28.994673 
	C92.000305,29.000462 92.010681,29.009506 91.900696,28.785650 
	C91.587257,28.282488 91.320496,28.091677 90.995148,27.994740 
	C90.999870,28.000124 91.010651,28.009539 90.898384,27.780983 
	C90.520378,27.345407 90.254646,27.138384 89.843491,26.646500 
	C88.159096,24.918049 86.620110,23.474461 85.051201,21.800665 
	C85.021271,21.570456 84.995346,21.106888 84.995346,21.106888 
	C90.969948,21.187580 97.100037,20.434494 102.888382,21.513948 
	C117.106606,24.165470 125.498062,34.718960 127.359627,51.077732 
	C140.165405,54.589405 149.993378,61.667515 154.083542,75.710373 
	C154.008804,76.593857 154.003586,76.797745 153.999313,77.000656 
	C154.000259,76.999695 154.004288,76.995758 153.776657,77.097992 
	C153.264801,77.401764 153.079117,77.671227 152.995987,78.004303 
	C153.000000,78.000000 153.008514,77.991943 152.780182,78.094879 
	C152.365250,78.468056 152.178650,78.738289 151.996033,79.004265 
	C152.000000,79.000000 152.008438,78.992035 151.780060,79.094788 
	C151.365189,79.467804 151.178726,79.738060 150.996124,80.004166 
	C151.000000,80.000000 151.008255,79.992226 150.779800,80.094574 
	C150.365219,80.467148 150.179092,80.737381 149.996490,81.003815 
	C150.000000,81.000000 150.007568,80.992928 149.778702,81.094063 
	C149.364563,81.465645 149.179291,81.736092 148.997009,82.003265 
	C149.000000,82.000000 149.006500,81.993988 148.777405,82.094177 
	C148.261566,82.395203 148.076981,82.665741 147.997162,83.003113 
	C147.999786,83.000252 148.005249,82.995667 147.605499,82.996628 
	C146.673080,83.021889 146.140411,83.046173 145.607758,83.070457 
	C143.199966,73.247940 138.264130,65.655968 127.181221,62.955894 
	C126.353882,62.968235 126.172211,62.942684 125.990532,62.917133 
z"/>
<path fill="#0D33E1" opacity="1.000000" stroke="none" 
	d="
M445.043335,165.975555 
	C454.894989,166.323593 464.253448,166.671509 474.162079,167.039886 
	C472.859436,171.871735 469.844818,173.358871 466.515747,173.389328 
	C447.915253,173.559631 429.312347,173.471222 410.836884,173.471222 
	C411.373199,161.612106 412.065704,150.573822 412.317383,139.525497 
	C412.566833,128.576508 412.371979,117.617393 412.371979,106.340897 
	C414.769745,106.340897 417.013672,106.340897 419.637421,106.340897 
	C419.637421,125.656776 419.637421,145.017700 419.637421,165.244995 
	C427.782562,165.483810 436.166321,165.729630 445.043335,165.975555 
z"/>
<path fill="#0028DE" opacity="1.000000" stroke="none" 
	d="
M113.994255,54.075676 
	C113.897476,54.369549 113.724266,54.607861 113.033318,54.989132 
	C112.392120,55.461967 112.192238,55.736294 111.992355,56.010620 
	C111.992355,56.010620 111.999695,55.999683 111.777588,56.100731 
	C111.367737,56.471470 111.179993,56.741158 110.992249,57.010841 
	C110.992249,57.010841 110.999695,56.999668 110.777817,57.100918 
	C110.368065,57.471703 110.180191,57.741234 109.992310,58.010765 
	C109.992310,58.010765 109.999695,57.999672 109.777626,58.100655 
	C109.367943,58.471210 109.180321,58.740784 108.992706,59.010353 
	C108.992699,59.010353 108.999695,58.999672 108.777115,59.100128 
	C108.367393,59.470367 108.180260,59.740150 107.993118,60.009933 
	C107.993118,60.009933 107.999130,60.000187 107.734619,60.004803 
	C107.050385,60.276024 106.630661,60.542625 106.141785,60.928291 
	C106.072639,61.047348 106.008179,61.315060 106.008179,61.315060 
	C101.938911,61.390633 97.869652,61.466202 93.263397,61.345352 
	C92.485718,61.056374 92.284721,61.111309 92.123421,61.313725 
	C87.065208,61.389713 82.006989,61.465702 76.458725,61.232887 
	C75.354126,61.054409 74.739578,61.184734 74.125038,61.315060 
	C70.048599,61.390961 65.972160,61.466858 61.411407,61.292175 
	C60.927090,61.041588 60.786705,60.801819 60.648270,60.580421 
	C60.003647,60.236992 59.497459,60.114960 58.996075,59.996761 
	C59.000877,60.000595 59.008980,60.010090 58.905205,59.781708 
	C58.530972,59.365971 58.260513,59.178612 57.995102,58.995552 
	C58.000153,58.999847 58.008762,59.009884 57.905487,58.781387 
	C57.531727,58.365917 57.261242,58.178947 56.995453,57.995914 
	C57.000153,57.999847 57.008053,58.009201 56.906006,57.780197 
	C56.533154,57.365059 56.262356,57.178928 55.995853,56.996323 
	C56.000153,56.999847 56.007225,57.008400 55.905670,56.779339 
	C55.533340,56.364532 55.262573,56.178787 54.995979,55.996445 
	C55.000153,55.999847 55.006966,56.008144 54.905472,55.779106 
	C54.533253,55.364391 54.262520,55.178715 53.995972,54.996445 
	C54.000153,54.999847 54.006977,55.008152 53.905388,54.779160 
	C53.533100,54.364426 53.262405,54.178684 52.995617,53.996094 
	C52.999527,53.999237 53.005089,54.007015 53.033936,53.693314 
	C53.374535,52.606415 53.686295,51.833214 54.458843,50.967033 
	C64.435074,51.153278 73.949944,51.629814 83.466110,51.657154 
	C93.308464,51.685429 103.152077,51.277576 113.128716,51.352303 
	C113.506279,52.454632 113.750267,53.265152 113.994255,54.075676 
z"/>
<path fill="#0D33E1" opacity="1.000000" stroke="none" 
	d="
M164.941162,131.335648 
	C164.362350,124.589966 163.568405,118.322380 163.354187,112.035049 
	C163.295563,110.314529 164.976089,108.534752 165.858505,106.782173 
	C166.991562,108.092377 168.979660,109.314201 169.125626,110.726425 
	C170.608902,125.077393 171.896271,139.451385 173.003021,153.837021 
	C173.397232,158.961075 173.102310,164.135483 173.208237,169.285141 
	C173.305176,173.997299 170.821411,175.338181 166.345749,174.722931 
	C165.875504,160.321030 165.409973,146.063660 164.941162,131.335648 
z"/>
<path fill="#052CDF" opacity="1.000000" stroke="none" 
	d="
M144.803574,112.639084 
	C142.068283,110.675201 139.626587,108.541161 137.036377,106.077942 
	C142.418793,100.259041 145.576263,93.714577 146.163956,85.400604 
	C147.062912,84.307358 147.534088,83.651512 148.005249,82.995667 
	C148.005249,82.995667 147.999786,83.000252 148.223709,82.899597 
	C148.730621,82.597778 148.916916,82.329460 149.006500,81.993988 
	C149.006500,81.993988 149.000000,82.000000 149.223282,81.898804 
	C149.729019,81.595947 149.916031,81.327721 150.007568,80.992928 
	C150.007568,80.992928 150.000000,81.000000 150.222290,80.898041 
	C150.726395,80.594002 150.914291,80.326050 151.008255,79.992226 
	C151.008255,79.992226 151.000000,80.000000 151.221832,79.897903 
	C151.725372,79.593544 151.913635,79.325623 152.008438,78.992035 
	C152.008438,78.992035 152.000000,79.000000 152.221664,78.897797 
	C152.724991,78.593315 152.913376,78.325424 153.008514,77.991943 
	C153.008514,77.991943 153.000000,78.000000 153.220932,77.898361 
	C153.723053,77.595551 153.910538,77.328568 154.004288,76.995758 
	C154.004288,76.995758 154.000259,76.999695 154.204071,76.999863 
	C154.407898,77.000038 154.817337,76.999390 154.817337,76.999390 
	C158.367844,90.683472 155.135788,102.508842 144.803574,112.639084 
M151.206207,89.447960 
	C151.404770,89.722473 151.666107,89.909042 152.202713,90.448807 
	C152.402222,90.723305 152.664322,90.909904 153.201904,91.451050 
	C153.401474,91.727119 153.664444,91.913971 154.106796,92.297462 
	C154.199661,92.345253 154.292511,92.393051 154.385376,92.440849 
	C154.261139,92.290497 154.136917,92.140144 153.808853,91.539864 
	C153.609390,91.258759 153.342850,91.074829 152.804626,90.540520 
	C152.606171,90.260002 152.340698,90.076294 151.803467,89.543045 
	C151.604614,89.264168 151.339615,89.080925 150.804123,88.545074 
	C150.604126,88.265945 150.338058,88.082733 149.801514,87.547203 
	C149.601761,87.267799 149.335815,87.084381 148.900436,86.706238 
	C148.810211,86.655281 148.719986,86.604317 148.629761,86.553360 
	C148.752228,86.703484 148.874695,86.853600 149.208694,87.445724 
	C149.407318,87.721924 149.669693,87.908516 150.207474,88.447342 
	C150.405914,88.723579 150.668060,88.910454 151.206207,89.447960 
z"/>
<path fill="#0028DF" opacity="1.000000" stroke="none" 
	d="
M46.012619,57.924843 
	C47.133110,56.714348 48.253605,55.503853 50.037476,54.154217 
	C51.468929,54.012390 52.237007,54.009705 53.005089,54.007015 
	C53.005089,54.007015 52.999527,53.999237 53.101067,54.222134 
	C53.404533,54.727283 53.672657,54.914989 54.006977,55.008152 
	C54.006977,55.008152 54.000153,54.999847 54.101372,55.222488 
	C54.404507,55.727386 54.672630,55.915058 55.006966,56.008144 
	C55.006966,56.008144 55.000153,55.999847 55.101547,56.222435 
	C55.404945,56.727154 55.673038,56.914948 56.007225,57.008400 
	C56.007225,57.008400 56.000153,56.999847 56.102066,57.222107 
	C56.406338,57.726120 56.674362,57.914398 57.008053,58.009201 
	C57.008053,58.009201 57.000153,57.999847 57.103107,58.221024 
	C57.408852,58.723007 57.676418,58.912235 58.008762,59.009884 
	C58.008762,59.009884 58.000153,58.999847 58.103428,59.220436 
	C58.409679,59.721565 58.677105,59.911255 59.008980,60.010090 
	C59.008980,60.010090 59.000877,60.000595 59.011349,60.192348 
	C59.021820,60.384102 59.089027,60.770519 59.042351,60.897362 
	C58.995678,61.024204 58.968098,61.293110 58.968098,61.293106 
	C54.620235,61.375439 50.272369,61.457771 45.461597,61.280212 
	C44.998688,61.020321 44.900761,60.763973 44.939453,60.470894 
	C44.988182,59.782211 44.998215,59.386604 45.008247,58.991001 
	C45.008247,58.991001 44.999332,59.000092 45.230255,58.893780 
	C45.644997,58.499928 45.828808,58.212387 46.012619,57.924843 
z"/>
<path fill="#0024C8" opacity="1.000000" stroke="none" 
	d="
M78.084251,173.444489 
	C80.244682,174.399216 82.335770,175.792984 84.714455,177.093597 
	C85.002052,177.000458 85.033691,177.026337 85.033691,177.026337 
	C85.026192,177.439438 85.018700,177.852539 85.002838,178.575424 
	C82.905327,178.885208 80.816185,178.885208 78.014900,178.885208 
	C78.014900,177.260559 78.014900,175.572052 78.084251,173.444489 
z"/>
<path fill="#1439E0" opacity="1.000000" stroke="none" 
	d="
M85.704742,81.897705 
	C84.724907,82.354256 83.431786,82.719246 81.869415,83.027481 
	C82.863930,82.582527 84.127693,82.194336 85.704742,81.897705 
z"/>
<path fill="#0123BC" opacity="1.000000" stroke="none" 
	d="
M147.605499,82.996628 
	C147.534088,83.651512 147.062912,84.307358 146.261185,85.006607 
	C145.797409,84.617203 145.664185,84.184395 145.569366,83.411026 
	C146.140411,83.046173 146.673080,83.021889 147.605499,82.996628 
z"/>
<path fill="#0022BD" opacity="1.000000" stroke="none" 
	d="
M84.624969,21.028374 
	C84.995346,21.106888 85.021271,21.570456 84.664062,21.797228 
	C83.537071,22.017731 82.767281,22.011459 81.997490,22.005190 
	C81.997490,22.005190 81.996887,21.557890 81.998207,21.334488 
	C82.751213,21.057344 83.502907,21.003601 84.624969,21.028374 
z"/>
<path fill="#1439E0" opacity="1.000000" stroke="none" 
	d="
M74.435539,61.460400 
	C74.739578,61.184734 75.354126,61.054409 76.010803,61.111473 
	C75.617310,61.401150 75.181679,61.503445 74.435539,61.460400 
z"/>
<path fill="#1439E0" opacity="1.000000" stroke="none" 
	d="
M45.384327,121.382126 
	C45.593922,121.590584 45.691967,122.095245 45.642845,122.751801 
	C45.421379,122.495247 45.347076,122.086784 45.384327,121.382126 
z"/>
<path fill="#0022BD" opacity="1.000000" stroke="none" 
	d="
M126.000641,63.222794 
	C126.172211,62.942684 126.353882,62.968235 126.809715,63.017120 
	C127.096344,63.479530 127.108818,63.918613 127.032097,64.675461 
	C126.632187,64.504974 126.321465,64.016708 126.000641,63.222794 
z"/>
<path fill="#1439E0" opacity="1.000000" stroke="none" 
	d="
M106.330437,61.463219 
	C106.008179,61.315060 106.072639,61.047348 106.418152,60.963593 
	C107.136429,60.847782 107.509201,60.815723 107.881966,60.783665 
	C107.881966,60.783665 107.967628,61.042870 107.989624,61.177544 
	C107.558647,61.411934 107.105667,61.511658 106.330437,61.463219 
z"/>
<path fill="#1439E0" opacity="1.000000" stroke="none" 
	d="
M59.294846,61.442493 
	C58.968098,61.293110 58.995678,61.024204 59.324677,60.943840 
	C60.031349,60.842922 60.409027,60.822372 60.786705,60.801819 
	C60.786705,60.801819 60.927090,61.041588 60.960258,61.176430 
	C60.536148,61.404804 60.078869,61.498341 59.294846,61.442493 
z"/>
<path fill="#1439E0" opacity="1.000000" stroke="none" 
	d="
M44.900761,60.763969 
	C44.900761,60.763973 44.998688,61.020321 45.015053,61.156521 
	C44.572235,61.397961 44.113056,61.503201 43.325214,61.460163 
	C42.996552,61.311882 43.050560,61.044376 43.399727,60.960991 
	C44.132851,60.839725 44.516804,60.801849 44.900761,60.763969 
z"/>
<path fill="#1439E0" opacity="1.000000" stroke="none" 
	d="
M45.384327,140.382172 
	C45.593929,140.590607 45.691975,141.095261 45.642853,141.751801 
	C45.421379,141.495255 45.347073,141.086807 45.384327,140.382172 
z"/>
<path fill="#1439E0" opacity="1.000000" stroke="none" 
	d="
M45.389717,109.290588 
	C45.762634,109.244530 45.835846,109.470184 45.593513,109.838661 
	C45.483746,109.919403 45.295792,109.500206 45.389717,109.290588 
z"/>
<path fill="#1439E0" opacity="1.000000" stroke="none" 
	d="
M56.145794,111.919449 
	C56.024235,111.855644 56.004871,111.673042 56.007576,111.215935 
	C56.265671,111.175652 56.338451,111.462059 56.145794,111.919449 
z"/>
<path fill="#1439E0" opacity="1.000000" stroke="none" 
	d="
M74.759552,92.301826 
	C74.864082,92.123146 75.191307,92.100998 76.011810,92.112129 
	C75.997475,92.249733 75.489861,92.354050 74.759552,92.301826 
z"/>
<path fill="#1439E0" opacity="1.000000" stroke="none" 
	d="
M56.131607,151.937744 
	C56.009369,151.871964 55.993164,151.686050 56.001324,151.221222 
	C56.265354,151.182449 56.336006,151.474197 56.131607,151.937744 
z"/>
<path fill="#1439E0" opacity="1.000000" stroke="none" 
	d="
M45.382462,153.295532 
	C45.759365,153.247421 45.833603,153.469086 45.587959,153.832520 
	C45.476376,153.908905 45.288105,153.499924 45.382462,153.295532 
z"/>
<path fill="#1439E0" opacity="1.000000" stroke="none" 
	d="
M45.382111,172.296005 
	C45.759930,172.247330 45.834270,172.468369 45.587708,172.831360 
	C45.475925,172.907303 45.287750,172.499695 45.382111,172.296005 
z"/>
<path fill="#1439E0" opacity="1.000000" stroke="none" 
	d="
M56.145439,174.920898 
	C56.023815,174.857300 56.004017,174.674286 56.005840,174.216019 
	C56.263805,174.175278 56.337074,174.462189 56.145439,174.920898 
z"/>
<path fill="#1439E0" opacity="1.000000" stroke="none" 
	d="
M92.314163,61.440609 
	C92.284721,61.111309 92.485718,61.056374 92.805946,61.230644 
	C92.885490,61.312363 92.504913,61.567493 92.314163,61.440609 
z"/>
<path fill="#0123BC" opacity="1.000000" stroke="none" 
	d="
M154.841934,76.731796 
	C154.817337,76.999390 154.407898,77.000038 154.203125,77.000832 
	C154.003586,76.797745 154.008804,76.593857 154.046844,76.084839 
	C154.341934,76.007874 154.604233,76.236038 154.841934,76.731796 
z"/>
<path fill="#1439E0" opacity="1.000000" stroke="none" 
	d="
M50.098991,81.745972 
	C50.015350,81.897049 49.752533,81.923721 49.093822,81.916260 
	C49.105225,81.795265 49.512516,81.708412 50.098991,81.745972 
z"/>
<path fill="#1439E0" opacity="1.000000" stroke="none" 
	d="
M55.067673,81.779968 
	C54.985252,81.925705 54.736420,81.947067 54.113926,81.931808 
	C54.127262,81.815315 54.514263,81.735451 55.067673,81.779968 
z"/>
<path fill="#1439E0" opacity="1.000000" stroke="none" 
	d="
M45.498672,89.563469 
	C45.708263,89.699112 45.743523,90.062042 45.630455,90.657578 
	C45.429535,90.523712 45.376938,90.157234 45.498672,89.563469 
z"/>
<path fill="#0022BD" opacity="1.000000" stroke="none" 
	d="
M114.378555,54.049530 
	C113.750267,53.265152 113.506279,52.454632 113.488556,51.258156 
	C114.457466,50.886467 115.200119,50.900730 115.942764,50.914993 
	C116.220734,51.747543 116.498711,52.580090 116.928833,53.710907 
	C116.308281,54.013916 115.535576,54.018650 114.378555,54.049530 
z"/>
<path fill="#0022BD" opacity="1.000000" stroke="none" 
	d="
M107.926773,60.588665 
	C107.509201,60.815723 107.136429,60.847782 106.487297,60.844536 
	C106.630661,60.542625 107.050385,60.276024 107.739670,60.002346 
	C108.009216,59.995274 107.971581,60.393665 107.926773,60.588665 
z"/>
<path fill="#0022BD" opacity="1.000000" stroke="none" 
	d="
M110.216660,57.902023 
	C110.180191,57.741234 110.368065,57.471703 110.783379,57.097157 
	C110.910919,57.323235 110.720985,57.590279 110.216660,57.902023 
z"/>
<path fill="#0022BD" opacity="1.000000" stroke="none" 
	d="
M109.217102,58.901878 
	C109.180321,58.740784 109.367943,58.471210 109.783157,58.096931 
	C109.911201,58.323383 109.721451,58.590439 109.217102,58.901878 
z"/>
<path fill="#0022BD" opacity="1.000000" stroke="none" 
	d="
M108.217514,59.901749 
	C108.180260,59.740150 108.367393,59.470367 108.782440,59.096596 
	C108.911346,59.323822 108.721863,59.590805 108.217514,59.901749 
z"/>
<path fill="#0022BD" opacity="1.000000" stroke="none" 
	d="
M112.221619,55.899269 
	C112.192238,55.736294 112.392120,55.461967 112.833153,55.089371 
	C112.866486,55.256702 112.658676,55.522308 112.221619,55.899269 
z"/>
<path fill="#0022BD" opacity="1.000000" stroke="none" 
	d="
M111.216522,56.902031 
	C111.179993,56.741158 111.367737,56.471470 111.783035,56.097050 
	C111.910637,56.323307 111.720695,56.590275 111.216522,56.902031 
z"/>
<path fill="#0024C8" opacity="1.000000" stroke="none" 
	d="
M86.969101,174.975891 
	C87.084618,174.954330 87.200142,174.932755 87.157845,174.956360 
	C87.000031,175.001511 86.969101,174.975891 86.969101,174.975891 
z"/>
<path fill="#0024C8" opacity="1.000000" stroke="none" 
	d="
M85.968887,175.975754 
	C86.073196,175.654800 86.261971,175.395325 86.752151,175.086609 
	C86.969101,174.975891 87.000031,175.001511 87.013229,175.017395 
	C86.923866,175.355209 86.736931,175.616852 86.232956,175.910065 
	C86.000298,176.001923 85.968887,175.975754 85.968887,175.975754 
z"/>
<path fill="#0024C8" opacity="1.000000" stroke="none" 
	d="
M86.013367,176.017700 
	C85.923393,176.352386 85.736710,176.610870 85.250038,176.917633 
	C85.033691,177.026337 85.002052,177.000458 84.988602,176.984497 
	C85.082870,176.652679 85.270882,176.395538 85.754044,176.086441 
	C85.968887,175.975754 86.000298,176.001923 86.013367,176.017700 
z"/>
<path fill="#FBFBFE" opacity="1.000000" stroke="none" 
	d="
M330.017822,119.710907 
	C335.493988,120.751221 340.348541,122.210854 341.787354,127.945450 
	C342.769806,131.861069 339.023834,136.659882 332.977173,139.373550 
	C323.289642,143.721222 312.996399,145.145721 302.455231,145.070938 
	C298.894440,145.045670 298.092133,142.714157 298.049438,139.735352 
	C297.875610,127.615059 301.937164,122.198181 313.845856,120.134567 
	C318.977356,119.245331 324.347748,119.734756 330.017822,119.710907 
z"/>
<path fill="#FBFCFE" opacity="1.000000" stroke="none" 
	d="
M115.931747,50.925385 
	C115.200119,50.900730 114.457466,50.886467 113.354980,50.966351 
	C103.152077,51.277576 93.308464,51.685429 83.466110,51.657154 
	C73.949944,51.629814 64.435074,51.153278 54.085247,50.873055 
	C52.485916,50.932343 51.720970,50.992619 50.956028,51.052895 
	C44.520199,51.052895 38.084366,51.052895 30.896065,51.052895 
	C30.896065,48.684700 30.896065,46.784695 30.897703,44.120155 
	C30.849119,42.917255 30.798899,42.478882 30.748678,42.040508 
	C30.808899,38.995445 30.869122,35.950378 31.210724,32.370472 
	C31.647078,31.759499 31.802053,31.683372 31.957027,31.607244 
	C34.689198,31.664595 37.421368,31.721947 40.826622,31.786854 
	C41.499702,31.794409 41.947506,31.621927 41.947506,31.621927 
	C48.340054,31.674776 54.732601,31.727625 61.812462,31.789806 
	C62.499775,31.799139 62.943298,31.625736 62.943298,31.625736 
	C65.990341,31.678608 69.037392,31.731480 72.868713,31.799643 
	C74.109703,31.744030 74.566406,31.673124 75.481468,31.689610 
	C81.285538,31.718706 86.631241,31.660414 92.310432,31.705109 
	C93.100204,31.748194 93.556503,31.688292 94.012794,31.628387 
	C96.637108,31.796438 99.261429,31.964487 102.534073,32.358482 
	C103.788750,32.712803 104.395088,32.841183 105.001427,32.969559 
	C111.439301,36.578403 115.826591,41.610916 116.260529,49.891129 
	C116.083366,50.608009 116.000603,50.756363 115.917831,50.904716 
	C115.917831,50.904716 115.920731,50.935772 115.931747,50.925385 
z"/>
<path fill="#0028DF" opacity="1.000000" stroke="none" 
	d="
M91.976952,31.602121 
	C86.631241,31.660414 81.285538,31.718706 75.475975,31.512810 
	C75.012123,31.248623 74.948914,30.900537 74.967438,30.583143 
	C74.992668,29.841955 74.999382,29.418163 75.006088,28.994370 
	C75.006088,28.994370 74.999649,28.999975 75.225883,28.902185 
	C75.637482,28.534042 75.822853,28.263687 76.008217,27.993334 
	C76.008217,27.993334 75.999695,27.999771 76.230812,27.893036 
	C76.645103,27.499472 76.828278,27.212645 77.011459,26.925816 
	C78.129570,25.716022 79.247681,24.506229 80.886414,23.059855 
	C81.606644,22.547503 81.806259,22.271732 82.005875,21.995964 
	C82.005875,21.995964 82.000282,21.999495 81.998886,22.002342 
	C82.767281,22.011459 83.537071,22.017731 84.694000,22.027437 
	C86.620110,23.474461 88.159096,24.918049 89.943604,26.886202 
	C90.462975,27.610357 90.736809,27.809948 91.010651,28.009541 
	C91.010651,28.009539 90.999870,28.000124 91.100845,28.222151 
	C91.471436,28.632620 91.741058,28.821064 92.010681,29.009506 
	C92.010681,29.009506 92.000305,29.000462 91.996582,29.314140 
	C92.011833,30.053062 92.030800,30.478306 92.018448,31.076824 
	C91.987122,31.250099 91.976952,31.602121 91.976952,31.602121 
z"/>
<path fill="#0022BB" opacity="1.000000" stroke="none" 
	d="
M50.937134,51.369377 
	C51.720970,50.992619 52.485916,50.932343 53.624454,50.966042 
	C53.686295,51.833214 53.374535,52.606415 53.033936,53.693314 
	C52.237007,54.009705 51.468929,54.012390 50.314800,54.012856 
	C50.258579,53.235710 50.588409,52.460789 50.937134,51.369377 
z"/>
<path fill="#0022BD" opacity="1.000000" stroke="none" 
	d="
M74.741035,29.106415 
	C74.999382,29.418163 74.992668,29.841955 74.649704,30.611691 
	C73.887772,30.954996 73.462097,30.952358 73.036415,30.949718 
	C73.516266,30.372631 73.996124,29.795546 74.741035,29.106415 
z"/>
<path fill="#0022BB" opacity="1.000000" stroke="none" 
	d="
M44.939453,60.470894 
	C44.516804,60.801849 44.132851,60.839725 43.463112,60.840153 
	C43.620903,60.269676 44.064472,59.736652 44.758144,59.097313 
	C44.998215,59.386604 44.988182,59.782211 44.939453,60.470894 
z"/>
<path fill="#0129DE" opacity="1.000000" stroke="none" 
	d="
M30.536100,42.163136 
	C30.798899,42.478882 30.849119,42.917255 30.816410,43.679165 
	C30.596827,43.430389 30.460175,42.858074 30.536100,42.163136 
z"/>
<path fill="#0D33E0" opacity="1.000000" stroke="none" 
	d="
M73.009903,31.115974 
	C73.462097,30.952358 73.887772,30.954996 74.631180,30.929085 
	C74.948914,30.900537 75.012123,31.248623 75.017616,31.425421 
	C74.566406,31.673124 74.109703,31.744030 73.316910,31.716930 
	C72.980812,31.618927 72.983383,31.282228 73.009903,31.115974 
z"/>
<path fill="#0D33E0" opacity="1.000000" stroke="none" 
	d="
M31.820568,31.493019 
	C31.802053,31.683372 31.647078,31.759499 31.245749,31.915512 
	C31.227631,31.789862 31.455868,31.584328 31.820568,31.493019 
z"/>
<path fill="#0D33E0" opacity="1.000000" stroke="none" 
	d="
M41.862965,31.496632 
	C41.947506,31.621927 41.499702,31.794409 41.276131,31.708221 
	C41.220596,31.295767 41.462551,31.212200 41.862965,31.496632 
z"/>
<path fill="#0D33E0" opacity="1.000000" stroke="none" 
	d="
M62.860359,31.499853 
	C62.943298,31.625736 62.499775,31.799139 62.278419,31.712528 
	C62.221725,31.298136 62.461842,31.214153 62.860359,31.499853 
z"/>
<path fill="#0022BD" opacity="1.000000" stroke="none" 
	d="
M75.783051,28.099247 
	C75.822853,28.263687 75.637482,28.534042 75.223343,28.905773 
	C75.088791,28.674105 75.276558,28.406776 75.783051,28.099247 
z"/>
<path fill="#0022BD" opacity="1.000000" stroke="none" 
	d="
M76.790771,27.054478 
	C76.828278,27.212645 76.645103,27.499472 76.227654,27.897289 
	C76.185616,27.733232 76.377846,27.458187 76.790771,27.054478 
z"/>
<path fill="#0022BD" opacity="1.000000" stroke="none" 
	d="
M81.774124,22.103603 
	C81.806259,22.271732 81.606644,22.547503 81.162354,22.916927 
	C81.125908,22.744135 81.334145,22.477690 81.774124,22.103603 
z"/>
<path fill="#0022BB" opacity="1.000000" stroke="none" 
	d="
M45.791805,58.054386 
	C45.828808,58.212387 45.644997,58.499928 45.226288,58.898804 
	C45.184589,58.734734 45.377792,58.459332 45.791805,58.054386 
z"/>
<path fill="#FAFBFE" opacity="1.000000" stroke="none" 
	d="
M383.346558,161.394073 
	C378.177307,163.846436 373.457031,166.886948 368.315369,168.027145 
	C363.091919,169.185486 359.856873,165.075531 360.539734,159.827087 
	C361.909912,149.295853 376.435150,136.700516 386.992828,136.888702 
	C392.617676,136.988968 395.446625,139.950058 393.276611,145.190338 
	C390.924713,150.869980 386.903748,155.858505 383.346558,161.394073 
z"/>
<path fill="#FAFBFE" opacity="1.000000" stroke="none" 
	d="
M213.630524,155.525726 
	C208.338654,162.269531 202.444656,167.507782 193.784912,168.178207 
	C188.007233,168.625504 184.810181,165.218246 185.554382,159.753296 
	C187.023376,148.965790 201.831650,136.435822 212.565353,136.898026 
	C217.379562,137.105331 219.773468,139.635239 218.557648,144.340668 
	C217.580093,148.123962 215.456284,151.611084 213.630524,155.525726 
z"/>
<path fill="#0022BD" opacity="1.000000" stroke="none" 
	d="
M92.049767,30.903547 
	C92.030800,30.478306 92.011833,30.053062 91.992920,29.308353 
	C92.571762,29.466314 93.150551,29.943745 93.524467,30.696838 
	C92.896317,30.949518 92.473045,30.926533 92.049767,30.903547 
z"/>
<path fill="#0D33E0" opacity="1.000000" stroke="none" 
	d="
M104.974686,32.693966 
	C104.395088,32.841183 103.788750,32.712803 102.969910,32.351768 
	C103.487587,32.218868 104.217766,32.318619 104.974686,32.693966 
z"/>
<path fill="#0D33E0" opacity="1.000000" stroke="none" 
	d="
M92.018448,31.076824 
	C92.473045,30.926533 92.896317,30.949518 93.636856,30.960381 
	C93.954117,30.948256 94.005020,31.286470 94.008911,31.457428 
	C93.556503,31.688292 93.100204,31.748194 92.310432,31.705109 
	C91.976952,31.602121 91.987122,31.250099 92.018448,31.076824 
z"/>
<path fill="#0022BD" opacity="1.000000" stroke="none" 
	d="
M91.900696,28.785650 
	C91.741058,28.821064 91.471436,28.632620 91.096115,28.216766 
	C91.320496,28.091677 91.587257,28.282488 91.900696,28.785650 
z"/>
<path fill="#0022BD" opacity="1.000000" stroke="none" 
	d="
M90.898384,27.780985 
	C90.736809,27.809948 90.462975,27.610357 90.089020,27.171062 
	C90.254646,27.138384 90.520378,27.345407 90.898384,27.780985 
z"/>
<path fill="#0D33E0" opacity="1.000000" stroke="none" 
	d="
M116.086098,50.903660 
	C116.000603,50.756363 116.083366,50.608009 116.366379,50.302643 
	C116.740753,50.513245 116.636665,50.765572 116.086098,50.903660 
z"/>
<path fill="#0123BC" opacity="1.000000" stroke="none" 
	d="
M152.780182,78.094879 
	C152.913376,78.325424 152.724991,78.593315 152.217682,78.902069 
	C152.178650,78.738289 152.365250,78.468056 152.780182,78.094879 
z"/>
<path fill="#0123BC" opacity="1.000000" stroke="none" 
	d="
M153.776657,77.097992 
	C153.910538,77.328568 153.723053,77.595551 153.216919,77.902664 
	C153.079117,77.671227 153.264801,77.401764 153.776657,77.097992 
z"/>
<path fill="#0123BC" opacity="1.000000" stroke="none" 
	d="
M151.780060,79.094788 
	C151.913635,79.325623 151.725372,79.593544 151.217957,79.902061 
	C151.178726,79.738060 151.365189,79.467804 151.780060,79.094788 
z"/>
<path fill="#0123BC" opacity="1.000000" stroke="none" 
	d="
M150.779800,80.094574 
	C150.914291,80.326050 150.726395,80.594002 150.218781,80.901855 
	C150.179092,80.737381 150.365219,80.467148 150.779800,80.094574 
z"/>
<path fill="#0123BC" opacity="1.000000" stroke="none" 
	d="
M149.778702,81.094063 
	C149.916031,81.327721 149.729019,81.595947 149.220291,81.902069 
	C149.179291,81.736092 149.364563,81.465645 149.778702,81.094063 
z"/>
<path fill="#0123BC" opacity="1.000000" stroke="none" 
	d="
M148.777405,82.094177 
	C148.916916,82.329460 148.730621,82.597778 148.221100,82.902466 
	C148.076981,82.665741 148.261566,82.395203 148.777405,82.094177 
z"/>
<path fill="#0022BB" opacity="1.000000" stroke="none" 
	d="
M60.648270,60.580421 
	C60.409027,60.822372 60.031349,60.842922 59.371349,60.816994 
	C59.089027,60.770519 59.021820,60.384102 59.006546,60.188515 
	C59.497459,60.114960 60.003647,60.236992 60.648270,60.580421 
z"/>
<path fill="#0022BB" opacity="1.000000" stroke="none" 
	d="
M53.905388,54.779160 
	C53.672657,54.914989 53.404533,54.727283 53.097160,54.218987 
	C53.262405,54.178684 53.533100,54.364426 53.905388,54.779160 
z"/>
<path fill="#0022BB" opacity="1.000000" stroke="none" 
	d="
M56.906006,57.780197 
	C56.674362,57.914398 56.406338,57.726120 56.097767,57.218582 
	C56.262356,57.178928 56.533154,57.365059 56.906006,57.780197 
z"/>
<path fill="#0022BB" opacity="1.000000" stroke="none" 
	d="
M57.905487,58.781387 
	C57.676418,58.912235 57.408852,58.723007 57.098408,58.217094 
	C57.261242,58.178947 57.531727,58.365917 57.905487,58.781387 
z"/>
<path fill="#0022BB" opacity="1.000000" stroke="none" 
	d="
M55.905670,56.779339 
	C55.673038,56.914948 55.404945,56.727154 55.097374,56.219032 
	C55.262573,56.178787 55.533340,56.364532 55.905670,56.779339 
z"/>
<path fill="#0022BB" opacity="1.000000" stroke="none" 
	d="
M58.905205,59.781708 
	C58.677105,59.911255 58.409679,59.721565 58.098381,59.216141 
	C58.260513,59.178612 58.530972,59.365971 58.905205,59.781708 
z"/>
<path fill="#0022BB" opacity="1.000000" stroke="none" 
	d="
M54.905472,55.779106 
	C54.672630,55.915058 54.404507,55.727386 54.097191,55.219086 
	C54.262520,55.178715 54.533253,55.364391 54.905472,55.779106 
z"/>
<path fill="#0123BC" opacity="1.000000" stroke="none" 
	d="
M153.009247,90.988068 
	C153.342850,91.074829 153.609390,91.258759 153.904602,91.769806 
	C154.000351,91.999756 153.990829,92.011597 153.990829,92.011597 
	C153.664444,91.913971 153.401474,91.727119 153.101044,91.225403 
	C153.000168,90.999748 153.009247,90.988068 153.009247,90.988068 
z"/>
<path fill="#0123BC" opacity="1.000000" stroke="none" 
	d="
M154.006516,91.994774 
	C154.136917,92.140144 154.261139,92.290497 154.385376,92.440849 
	C154.292511,92.393051 154.199661,92.345253 154.048813,92.154526 
	C153.990829,92.011597 154.000351,91.999756 154.006516,91.994774 
z"/>
<path fill="#0123BC" opacity="1.000000" stroke="none" 
	d="
M148.997162,87.003716 
	C148.874695,86.853600 148.752228,86.703484 148.629761,86.553360 
	C148.719986,86.604317 148.810211,86.655281 148.950226,86.853119 
	C149.000000,87.000000 148.997162,87.003716 148.997162,87.003716 
z"/>
<path fill="#0123BC" opacity="1.000000" stroke="none" 
	d="
M152.994598,91.004181 
	C152.664322,90.909904 152.402222,90.723305 152.101425,90.224304 
	C152.000137,89.999809 152.008224,89.989403 152.008224,89.989403 
	C152.340698,90.076294 152.606171,90.260002 152.906937,90.764297 
	C153.009247,90.988068 153.000168,90.999748 152.994598,91.004181 
z"/>
<path fill="#0123BC" opacity="1.000000" stroke="none" 
	d="
M149.995804,88.005493 
	C149.669693,87.908516 149.407318,87.721924 149.102936,87.224716 
	C148.997162,87.003716 149.000000,87.000000 149.001831,86.998482 
	C149.335815,87.084381 149.601761,87.267799 149.900757,87.773605 
	C150.000000,88.000000 149.995804,88.005493 149.995804,88.005493 
z"/>
<path fill="#0123BC" opacity="1.000000" stroke="none" 
	d="
M150.002960,87.997726 
	C150.338058,88.082733 150.604126,88.265945 150.902069,88.772522 
	C151.000031,88.999969 150.993912,89.007980 150.993912,89.007980 
	C150.668060,88.910454 150.405914,88.723579 150.101639,88.226418 
	C149.995804,88.005493 150.000000,88.000000 150.002960,87.997726 
z"/>
<path fill="#0123BC" opacity="1.000000" stroke="none" 
	d="
M151.995178,90.003738 
	C151.666107,89.909042 151.404770,89.722473 151.100067,89.227966 
	C150.993912,89.007980 151.000031,88.999969 151.004272,88.996643 
	C151.339615,89.080925 151.604614,89.264168 151.905853,89.766220 
	C152.008224,89.989403 152.000137,89.999809 151.995178,90.003738 
z"/>
</svg>